<?xml version="1.0" encoding="UTF-8" standalone="no"?>
<!DOCTYPE svg PUBLIC "-//W3C//DTD SVG 1.1//EN" "http://www.w3.org/Graphics/SVG/1.1/DTD/svg11.dtd">
<svg xmlns="http://www.w3.org/2000/svg" version="1.1" viewBox="0.00 0.00 530.00 535.00">
<path fill="#fff" d="
  M 323.46 132.49
  Q 323.22 132.60 323.04 132.81
  Q 322.76 133.13 322.35 133.28
  Q 315.52 135.82 308.26 135.00
  Q 306.61 134.81 304.31 135.67
  C 301.63 136.69 298.99 139.92 296.83 141.94
  C 293.18 145.37 289.79 149.27 286.11 152.91
  Q 285.06 153.94 285.09 152.47
  Q 285.31 142.46 285.77 131.75
  Q 285.81 130.84 285.23 129.97
  A 0.97 0.95 39.3 0 1 285.13 129.09
  Q 285.70 127.61 285.48 126.01
  A 2.72 2.71 -27.1 0 1 286.21 123.76
  Q 293.21 116.49 301.13 109.62
  Q 305.33 105.97 310.50 105.75
  A 1.96 1.95 2.8 0 0 312.35 104.08
  L 313.36 97.19
  Q 313.44 96.61 313.10 96.12
  Q 312.35 95.09 312.53 93.83
  A 0.81 0.80 18.6 0 0 312.12 93.01
  Q 311.23 92.52 311.01 91.53
  A 0.80 0.79 85.6 0 0 310.29 90.91
  Q 309.26 90.83 309.31 89.77
  A 1.20 1.18 -72.0 0 0 308.79 88.73
  Q 307.25 87.70 306.85 85.92
  Q 306.74 85.45 307.04 85.06
  L 316.87 72.40
  Q 317.18 72.02 317.18 71.53
  L 317.52 49.85
  A 1.36 1.36 0.0 0 0 315.36 48.72
  Q 313.71 49.91 312.19 51.55
  C 306.80 57.36 301.12 62.91 295.65 68.65
  C 294.82 69.51 294.27 70.43 293.67 71.05
  Q 285.88 79.07 278.10 87.10
  C 277.55 87.66 277.32 88.52 276.74 89.10
  Q 272.42 93.44 268.99 97.73
  Q 267.55 99.54 267.33 97.24
  Q 267.07 94.52 267.30 90.92
  Q 267.63 85.93 267.46 80.93
  A 1.04 1.02 -72.7 0 0 267.07 80.16
  Q 266.42 79.65 267.03 79.01
  Q 267.42 78.61 267.44 78.05
  C 267.59 71.91 267.76 65.80 267.78 59.68
  Q 267.83 48.07 272.84 39.34
  C 274.68 36.14 280.54 28.85 284.91 26.86
  C 285.72 26.49 286.02 25.79 286.74 25.40
  C 296.37 20.25 310.16 17.81 320.53 22.30
  C 322.05 22.95 323.45 23.09 324.81 24.03
  Q 326.52 25.21 328.31 26.25
  C 330.29 27.42 331.56 28.84 333.16 30.38
  C 334.39 31.57 334.96 33.09 336.39 34.31
  A 1.41 1.41 0.0 0 1 336.87 35.17
  Q 337.09 36.61 338.54 36.77
  A 0.57 0.57 0.0 0 1 339.05 37.23
  L 341.23 48.13
  A 2.80 2.51 41.9 0 1 341.29 48.69
  Q 341.25 64.32 341.25 80.01
  C 341.25 91.52 342.50 102.56 339.41 113.87
  Q 339.31 114.21 338.61 115.69
  C 338.15 116.65 338.32 117.45 337.88 118.34
  Q 335.35 123.45 331.45 127.57
  C 330.30 128.78 328.56 129.51 327.21 130.76
  Q 326.75 131.18 326.14 131.31
  L 325.77 131.39
  Q 325.26 131.51 325.04 131.99
  Q 324.81 132.52 324.29 132.48
  Q 323.60 132.42 323.46 132.49
  Z"
/>
<path fill="#fff" d="
  M 197.23 52.26
  Q 196.68 65.67 196.72 72.50
  C 196.75 77.70 203.20 83.84 206.48 87.53
  Q 208.01 89.25 206.08 90.90
  Q 205.71 91.22 205.70 91.71
  Q 205.69 92.62 204.91 93.09
  Q 204.45 93.37 204.23 93.87
  C 203.33 95.94 202.37 97.81 202.54 100.13
  C 202.75 103.11 203.21 107.18 205.54 109.19
  A 1.21 1.21 0.0 0 0 206.44 109.47
  C 209.40 109.16 212.18 107.74 215.01 109.95
  C 219.39 113.37 224.27 116.25 228.14 120.12
  C 230.14 122.14 232.46 125.01 234.91 126.39
  C 237.83 128.04 236.20 130.04 236.27 132.12
  Q 236.69 143.36 236.44 153.61
  Q 236.37 156.69 234.30 154.40
  Q 228.65 148.14 221.20 142.57
  Q 218.35 140.44 214.75 140.43
  Q 204.92 140.40 195.44 137.89
  C 194.41 137.62 193.55 136.93 192.46 136.61
  Q 192.15 136.52 191.83 136.54
  Q 191.19 136.59 191.01 135.94
  A 0.65 0.64 72.5 0 0 190.19 135.51
  Q 189.40 135.76 189.00 135.05
  Q 188.77 134.64 188.36 134.41
  C 182.22 131.02 179.11 126.69 175.55 121.00
  Q 174.79 119.80 174.65 118.59
  A 1.56 1.50 -65.0 0 0 174.44 117.98
  C 172.48 114.59 171.69 107.43 171.64 104.93
  C 171.34 91.21 172.11 77.52 171.61 63.83
  C 171.46 59.51 171.86 55.67 172.35 51.53
  C 172.76 48.15 174.43 42.00 176.28 40.02
  C 177.98 38.20 179.32 35.91 180.91 34.30
  C 191.22 23.87 209.15 21.25 222.66 25.87
  A 0.78 0.76 -5.6 0 1 223.05 26.18
  Q 223.33 26.65 223.94 26.47
  Q 224.50 26.31 224.99 26.61
  L 231.30 30.43
  Q 231.72 30.68 232.04 31.04
  C 232.89 31.97 233.82 32.25 234.59 33.20
  C 236.21 35.16 238.26 36.77 239.64 38.74
  Q 241.04 40.74 242.37 42.80
  Q 242.63 43.20 243.11 43.19
  Q 243.65 43.18 243.89 43.58
  Q 244.05 43.87 243.98 44.41
  C 243.61 46.95 245.06 48.68 245.38 50.71
  C 245.81 53.42 246.24 56.00 246.25 58.79
  Q 246.26 76.69 246.25 93.29
  Q 246.24 96.21 244.18 94.14
  C 238.86 88.79 233.11 83.98 227.73 78.71
  C 223.04 74.10 217.92 69.92 213.35 65.31
  C 208.74 60.66 203.82 56.76 200.12 52.87
  Q 199.33 52.04 197.76 51.82
  Q 197.25 51.75 197.23 52.26
  Z"
/>
<path fill="#fff" d="
  M 370.61 43.52
  Q 375.33 45.59 379.11 49.13
  Q 386.25 55.83 392.74 62.87
  A 0.97 0.96 43.8 0 1 392.77 64.15
  Q 391.13 66.07 388.96 67.79
  Q 383.62 72.01 378.36 76.36
  Q 374.76 79.32 371.36 82.52
  C 368.75 84.96 365.03 87.67 362.30 90.77
  Q 360.91 92.36 360.92 90.24
  L 361.22 39.50
  Q 361.24 37.14 362.91 38.96
  C 364.13 40.29 367.45 41.45 369.12 42.28
  C 369.84 42.64 369.95 43.24 370.61 43.52
  Z"
/>
<path fill="#fff" d="
  M 121.48 76.04
  Q 121.46 75.90 121.43 75.75
  A 0.41 0.40 -24.9 0 1 121.57 75.37
  C 123.27 73.93 124.10 71.95 125.45 70.54
  C 133.22 62.46 140.49 56.60 151.28 52.98
  Q 151.92 52.76 151.92 53.44
  L 151.58 102.28
  A 0.76 0.76 0.0 0 1 150.36 102.88
  Q 140.28 95.19 130.25 87.54
  Q 130.20 87.50 128.69 86.58
  C 127.85 86.06 127.34 85.18 126.59 84.66
  Q 123.47 82.47 120.08 80.73
  Q 119.64 80.50 119.66 80.00
  Q 119.77 78.06 121.19 76.82
  Q 121.54 76.51 121.48 76.04
  Z"
/>
<path fill="#fff" d="
  M 429.58 145.05
  Q 429.58 144.04 430.18 143.22
  Q 430.47 142.82 430.49 142.33
  C 430.53 140.57 431.34 139.19 431.46 137.68
  C 432.17 129.10 427.13 122.03 421.37 116.40
  C 420.38 115.44 418.90 114.84 417.79 113.81
  Q 417.42 113.46 416.92 113.55
  Q 416.28 113.66 416.05 113.07
  Q 415.85 112.54 415.29 112.51
  C 413.75 112.44 412.36 111.80 411.02 111.79
  C 404.69 111.75 402.69 116.14 398.85 120.15
  Q 398.51 120.51 398.57 121.00
  Q 398.64 121.59 398.22 121.87
  Q 397.82 122.13 397.69 122.59
  Q 397.43 123.55 396.65 125.20
  Q 395.36 127.98 395.93 133.73
  Q 396.45 139.01 400.90 141.78
  A 0.82 0.82 0.0 0 1 401.03 143.07
  Q 394.65 149.06 388.50 155.50
  C 387.22 156.85 386.22 158.90 384.60 160.37
  Q 384.20 160.74 384.03 161.25
  Q 383.32 163.42 381.89 165.13
  Q 381.58 165.50 381.58 165.99
  Q 381.58 166.48 381.27 166.89
  Q 380.85 167.42 380.76 167.63
  Q 377.37 175.32 376.97 181.00
  C 376.59 186.56 378.76 194.59 379.79 201.06
  Q 380.77 207.12 380.35 210.49
  C 379.18 219.89 371.64 226.61 362.91 229.96
  C 362.26 230.21 361.29 230.18 360.48 230.74
  Q 360.09 231.02 359.62 231.13
  L 356.49 231.84
  Q 356.11 231.93 355.94 232.27
  L 355.82 232.53
  Q 355.64 232.88 355.27 232.76
  Q 354.21 232.40 353.00 232.79
  A 1.26 1.26 0.0 0 1 351.35 231.60
  Q 350.99 195.61 350.68 160.00
  Q 350.59 149.57 350.97 144.33
  A 1.14 1.14 0.0 0 1 351.43 143.50
  C 355.86 140.30 360.37 136.34 363.35 131.75
  C 363.99 130.78 364.87 130.35 365.42 129.34
  C 366.60 127.20 368.02 125.29 369.17 123.12
  C 369.72 122.07 370.56 121.59 371.05 120.51
  Q 371.46 119.60 371.88 118.70
  C 372.49 117.34 373.74 116.56 374.22 114.93
  A 1.44 1.44 0.0 0 1 374.74 114.20
  Q 375.82 113.44 376.13 112.17
  Q 376.25 111.66 376.64 111.31
  C 378.88 109.30 380.22 106.86 382.51 105.01
  Q 384.59 103.34 386.50 101.48
  Q 389.31 98.73 398.49 94.83
  Q 398.72 94.73 398.98 94.76
  Q 399.16 94.78 399.24 94.75
  Q 411.04 90.37 423.41 92.30
  C 430.30 93.38 438.14 96.44 443.78 100.57
  C 446.99 102.93 449.92 105.43 454.06 110.22
  Q 454.42 110.64 454.99 110.67
  Q 456.59 110.74 456.27 112.28
  Q 456.16 112.80 456.46 113.23
  Q 465.50 125.96 464.99 141.76
  C 464.92 143.95 464.07 149.19 462.61 152.16
  Q 461.84 153.71 461.33 155.37
  A 1.62 1.62 0.0 0 1 460.84 156.11
  Q 460.11 156.75 459.93 157.73
  A 1.55 1.50 -15.9 0 1 459.45 158.56
  C 458.11 159.72 457.85 161.15 456.77 162.31
  Q 451.85 167.60 445.74 168.97
  C 438.02 170.70 426.75 170.24 421.03 170.47
  Q 411.33 170.87 402.11 171.01
  Q 400.44 171.04 401.44 169.70
  L 409.24 159.25
  Q 409.53 158.86 410.01 158.74
  C 412.27 158.17 414.85 157.89 416.77 157.23
  Q 422.36 155.28 426.25 150.73
  C 426.99 149.88 427.06 148.72 428.12 147.93
  A 1.37 1.37 0.0 0 0 428.65 146.98
  Q 428.70 146.34 429.18 145.93
  Q 429.58 145.58 429.58 145.05
  Z"
/>
<path fill="#fff" d="
  M 141.13 190.62
  Q 141.05 190.74 140.94 190.80
  Q 140.63 190.97 140.35 190.75
  C 138.59 189.34 136.99 190.68 134.86 190.02
  Q 134.46 189.89 134.04 189.93
  L 129.72 190.33
  A 1.12 1.12 0.0 0 1 128.50 189.21
  L 128.50 143.80
  A 1.23 1.22 -89.5 0 0 127.30 142.57
  L 84.32 141.64
  A 3.20 3.19 -89.8 0 0 81.06 144.89
  L 81.30 160.03
  A 0.74 0.73 89.2 0 0 82.03 160.75
  L 112.45 160.75
  Q 112.91 160.75 112.91 161.20
  L 113.02 190.15
  Q 113.02 190.99 112.17 190.98
  L 84.90 190.65
  Q 84.41 190.64 83.95 190.47
  C 82.96 190.10 81.75 190.26 80.89 190.09
  Q 65.45 186.98 58.02 173.50
  Q 56.61 170.94 55.80 169.78
  Q 55.54 169.39 55.64 168.94
  C 55.91 167.77 55.15 166.89 54.89 166.03
  C 47.62 141.99 65.48 116.57 89.26 111.86
  Q 104.28 108.89 116.20 111.56
  Q 125.49 113.64 129.87 116.65
  Q 138.04 122.27 140.88 126.12
  Q 143.26 129.35 144.35 130.46
  Q 144.70 130.81 144.88 131.27
  C 145.43 132.67 146.69 133.66 147.35 134.71
  C 148.71 136.87 149.78 138.51 151.69 140.75
  C 152.72 141.97 153.33 143.37 154.40 144.46
  Q 161.08 151.26 169.07 156.47
  Q 169.49 156.75 169.32 157.22
  C 168.93 158.34 168.50 159.41 168.50 160.63
  Q 168.50 199.43 168.50 237.90
  A 0.91 0.91 0.0 0 1 167.48 238.80
  C 157.64 237.53 148.24 234.39 143.33 225.04
  C 142.37 223.20 141.19 221.39 140.80 219.35
  Q 139.32 211.63 139.75 203.74
  Q 140.16 196.18 140.01 193.25
  Q 139.92 191.35 141.13 190.62
  Z"
/>
<path fill="#fff" d="
  M 305.92 193.77
  A 0.34 0.34 0.0 0 0 305.34 193.53
  Q 300.99 197.81 297.29 202.27
  C 294.70 205.38 291.08 208.80 288.47 212.55
  Q 288.29 212.81 288.03 212.97
  Q 287.51 213.28 287.48 213.29
  Q 286.39 213.82 286.43 212.60
  Q 287.01 197.50 287.03 184.00
  Q 287.03 183.22 288.20 181.70
  Q 295.29 172.47 304.60 165.53
  Q 304.79 165.40 306.00 164.82
  C 306.73 164.48 307.01 163.82 307.67 163.44
  Q 311.71 161.14 316.11 159.69
  C 317.16 159.35 318.35 159.51 319.74 159.14
  Q 322.95 158.29 330.24 159.47
  Q 330.71 159.54 330.73 160.02
  Q 331.50 177.91 331.51 195.74
  C 331.52 208.07 331.79 221.43 330.71 235.09
  C 330.24 240.93 327.02 249.70 322.99 254.06
  C 317.07 260.46 311.11 265.33 304.04 271.78
  C 303.37 272.39 302.32 272.86 301.52 273.62
  Q 294.58 280.26 288.01 286.53
  A 0.74 0.74 0.0 0 1 286.76 285.99
  Q 286.74 266.37 286.75 247.00
  Q 286.75 246.18 286.21 243.23
  Q 286.11 242.69 286.47 242.27
  L 305.87 220.09
  Q 306.23 219.68 306.22 219.13
  L 305.92 193.77
  Z"
/>
<path fill="#fff" d="
  M 214.02 193.50
  Q 214.04 204.03 213.75 214.75
  Q 213.68 217.21 214.09 219.73
  Q 214.16 220.17 214.48 220.50
  L 236.21 242.99
  Q 236.59 243.38 236.46 243.92
  Q 235.71 247.17 235.75 248.25
  C 236.07 256.58 235.95 264.88 236.18 273.21
  Q 236.28 276.86 235.67 280.51
  Q 235.58 281.04 235.06 280.92
  C 233.47 280.52 232.25 279.20 231.06 278.58
  C 225.24 275.54 219.91 271.45 214.29 268.14
  Q 209.51 265.33 204.92 262.20
  C 201.44 259.83 198.63 256.56 195.54 253.58
  Q 195.20 253.25 195.11 252.78
  Q 194.77 251.01 192.94 250.61
  Q 192.42 250.50 192.33 249.99
  C 191.90 247.75 191.51 245.97 190.55 243.66
  C 189.01 239.96 188.70 234.89 188.59 230.93
  Q 187.93 207.00 188.41 183.07
  C 188.53 177.31 188.07 170.24 188.32 163.80
  A 0.70 0.69 88.1 0 1 188.93 163.14
  Q 196.39 162.20 204.08 163.42
  C 211.20 164.56 216.55 168.57 221.85 173.15
  C 224.39 175.34 226.42 178.53 229.12 181.15
  C 231.14 183.11 232.31 185.65 234.66 187.57
  A 0.98 0.97 -70.5 0 1 235.01 188.32
  L 234.67 210.36
  A 0.77 0.77 0.0 0 1 233.37 210.91
  L 214.86 193.14
  A 0.50 0.50 0.0 0 0 214.02 193.50
  Z"
/>
<path fill="#fff" d="
  M 478.00 226.25
  Q 478.00 225.50 477.25 225.50
  L 427.00 225.50
  A 1.00 1.00 0.0 0 0 426.00 226.50
  L 426.00 279.22
  Q 426.00 279.70 425.52 279.71
  Q 409.45 279.79 393.52 280.05
  C 391.43 280.09 389.57 280.48 387.71 281.10
  A 1.23 1.23 0.0 0 1 386.09 279.84
  Q 386.18 278.71 387.21 278.38
  Q 387.74 278.21 388.03 277.75
  C 391.48 272.39 396.02 266.58 398.28 261.31
  Q 401.83 253.04 401.77 244.24
  Q 401.59 219.38 401.44 195.17
  A 1.89 1.88 -0.2 0 1 403.33 193.28
  Q 430.18 193.23 456.16 193.25
  C 458.26 193.25 460.39 193.53 462.53 193.67
  C 465.53 193.86 468.26 194.79 471.25 195.27
  C 474.07 195.73 479.83 198.53 483.04 201.16
  C 484.27 202.18 485.73 202.79 486.83 203.82
  C 489.22 206.06 491.25 209.29 494.27 210.55
  A 0.76 0.76 0.0 0 1 494.74 211.28
  Q 494.69 212.76 495.02 213.26
  C 504.40 227.63 503.79 243.73 495.97 258.65
  Q 495.72 259.11 494.81 260.14
  C 494.14 260.89 494.00 261.69 493.47 262.39
  C 491.22 265.37 488.68 268.66 485.54 270.74
  C 484.42 271.48 483.63 272.47 482.55 273.14
  Q 471.91 279.66 461.11 279.88
  Q 450.94 280.10 441.32 280.42
  A 1.52 1.52 0.0 0 1 439.75 278.90
  L 439.75 245.44
  Q 439.75 243.37 441.81 243.36
  L 476.78 243.20
  A 1.23 1.23 0.0 0 0 478.00 241.97
  L 478.00 226.25
  Z"
/>
<path fill="#fff" d="
  M 49.90 264.32
  Q 53.09 262.84 55.25 262.81
  Q 68.38 262.59 81.37 262.93
  A 1.94 1.94 0.0 0 1 83.18 265.43
  C 82.84 266.56 83.49 268.35 82.98 269.19
  Q 82.75 269.58 82.75 270.04
  L 82.75 298.24
  A 0.99 0.98 -89.4 0 1 81.75 299.23
  Q 72.15 299.06 62.52 298.89
  Q 52.61 298.71 47.65 297.24
  C 39.65 294.87 31.40 289.83 26.93 282.35
  C 26.22 281.16 25.34 280.40 24.81 279.12
  Q 23.80 276.71 22.76 274.32
  C 22.28 273.21 22.06 271.03 20.92 269.66
  Q 20.61 269.28 20.59 268.78
  Q 20.53 267.31 20.03 264.24
  Q 17.70 249.90 23.15 238.68
  Q 26.96 230.84 35.44 223.45
  Q 35.97 222.99 38.05 221.61
  C 39.30 220.78 40.12 219.66 41.45 219.01
  Q 43.54 217.99 45.63 216.95
  Q 46.07 216.74 46.55 216.63
  Q 47.05 216.53 47.57 216.52
  Q 47.84 216.52 47.90 216.26
  Q 48.16 215.24 49.15 215.48
  Q 49.67 215.61 50.17 215.40
  Q 52.60 214.42 55.18 214.54
  Q 55.47 214.55 55.70 214.38
  L 55.98 214.18
  Q 56.09 214.10 56.22 214.09
  Q 68.57 212.90 81.00 213.30
  Q 100.57 213.94 120.09 214.60
  A 1.06 1.06 0.0 0 1 121.12 215.73
  C 120.08 232.05 120.62 248.28 121.16 264.49
  C 121.35 270.08 122.35 277.22 125.33 282.07
  Q 125.63 282.56 125.52 283.13
  Q 125.37 283.98 126.18 284.09
  A 0.50 0.49 14.2 0 1 126.58 284.76
  Q 126.17 285.80 127.09 286.07
  A 0.68 0.68 0.0 0 1 127.55 286.92
  Q 127.28 287.79 128.11 288.11
  A 1.13 1.12 5.7 0 1 128.81 288.96
  Q 129.08 290.37 130.26 291.19
  Q 130.67 291.48 130.79 291.96
  Q 131.11 293.18 131.99 294.01
  Q 134.45 296.32 136.15 299.22
  Q 136.41 299.66 135.90 299.67
  Q 118.42 300.00 105.00 299.49
  Q 102.92 299.41 101.41 300.25
  Q 100.96 300.50 100.56 300.17
  Q 99.52 299.29 98.10 299.12
  Q 97.52 299.05 97.53 298.47
  L 97.81 246.12
  Q 97.82 245.16 96.87 245.15
  L 50.32 244.37
  Q 49.51 244.36 49.51 245.18
  L 49.49 264.05
  Q 49.49 264.50 49.90 264.32
  Z"
/>
<path fill="#fff" d="
  M 255.40 499.07
  L 253.23 499.55
  Q 252.76 499.66 252.76 499.17
  Q 252.74 476.69 252.73 454.25
  C 252.73 453.22 252.41 452.19 252.42 451.24
  C 253.13 381.64 253.38 321.61 252.78 256.79
  Q 252.70 248.72 253.02 247.22
  C 254.09 242.21 259.17 237.37 264.66 238.08
  C 268.42 238.57 271.09 241.37 272.83 244.57
  Q 273.08 245.01 273.58 245.00
  Q 273.80 245.00 273.99 244.93
  Q 274.42 244.78 274.48 245.23
  C 274.65 246.57 275.21 247.73 275.22 249.04
  C 275.40 277.79 274.91 306.50 274.45 335.25
  C 274.42 337.57 273.29 340.14 273.28 342.10
  Q 273.22 367.69 273.26 393.27
  A 0.79 0.79 0.0 0 0 273.72 393.99
  L 274.07 394.14
  Q 274.35 394.26 274.25 394.55
  Q 273.48 396.79 273.94 399.10
  Q 274.05 399.61 273.76 400.04
  C 273.37 400.62 273.18 400.98 273.17 401.73
  Q 272.85 425.24 273.07 448.75
  C 273.08 450.12 272.75 451.51 272.75 452.75
  C 272.74 467.97 272.61 483.17 272.52 498.39
  A 0.89 0.89 0.0 0 1 271.62 499.28
  Q 265.65 499.21 259.50 499.22
  Q 257.50 499.22 255.65 500.20
  Q 255.58 500.23 255.75 500.01
  Q 255.90 499.81 255.92 499.51
  Q 255.96 498.94 255.40 499.07
  Z"
/>
<path fill="#fff" d="
  M 362.54 286.92
  Q 362.72 287.57 362.15 287.89
  Q 361.70 288.15 361.49 288.63
  Q 360.17 291.69 358.27 294.40
  Q 356.61 296.77 354.77 299.02
  Q 348.08 307.16 339.32 312.99
  C 338.00 313.86 337.66 314.72 336.92 316.05
  Q 336.52 316.78 336.39 315.96
  Q 335.04 307.44 334.87 298.88
  C 334.60 285.20 339.20 267.97 351.54 260.20
  C 352.68 259.48 353.21 258.55 354.46 257.98
  C 357.12 256.78 359.61 255.18 362.36 254.52
  Q 367.37 253.30 372.56 252.95
  Q 372.99 252.93 372.81 253.31
  L 372.43 254.10
  Q 372.19 254.59 372.24 255.13
  C 372.38 256.63 371.66 257.77 371.48 259.05
  Q 369.59 272.28 363.74 284.29
  Q 363.65 284.47 363.46 285.28
  Q 363.34 285.79 362.87 286.08
  Q 362.38 286.37 362.54 286.92
  Z"
/>
<path fill="#fff" d="
  M 184.46 290.25
  Q 186.02 296.07 186.13 301.01
  Q 186.34 311.30 185.32 320.48
  Q 185.15 321.99 183.92 321.10
  C 177.88 316.76 171.08 312.23 166.91 306.80
  Q 163.90 302.88 162.58 301.46
  A 2.30 2.26 13.5 0 1 162.11 300.71
  C 161.59 299.36 160.55 298.71 159.97 297.49
  C 158.88 295.23 157.28 293.28 156.34 291.05
  C 155.17 288.28 153.70 285.58 152.76 282.90
  Q 148.59 270.93 147.10 258.88
  A 0.97 0.97 0.0 0 1 148.24 257.81
  C 166.61 261.29 179.55 271.95 184.46 290.25
  Z"
/>
<path fill="#fff" d="
  M 229.57 314.15
  Q 229.71 314.23 229.86 314.26
  Q 230.34 314.34 230.16 314.79
  Q 229.72 315.91 230.08 316.73
  Q 231.82 320.60 232.51 323.25
  Q 236.10 337.06 234.47 350.95
  A 0.62 0.62 0.0 0 1 233.42 351.32
  C 231.07 348.98 228.07 346.96 225.99 345.04
  C 216.00 335.83 209.05 328.24 203.84 315.93
  Q 201.85 311.22 199.26 299.63
  C 198.57 296.53 197.12 292.81 196.83 289.27
  Q 196.73 288.09 197.85 288.45
  Q 218.26 294.89 228.86 313.45
  Q 229.10 313.87 229.57 314.15
  Z"
/>
<path fill="#fff" d="
  M 314.27 323.59
  C 312.35 326.01 311.64 328.99 309.53 331.45
  C 308.54 332.62 307.90 333.98 306.92 335.03
  Q 304.49 337.63 302.23 340.38
  C 300.57 342.40 298.00 343.60 296.37 346.02
  Q 296.08 346.45 295.61 346.65
  Q 294.20 347.26 293.25 348.49
  Q 292.77 349.11 292.76 348.32
  C 292.65 340.88 292.49 332.91 293.75 325.69
  Q 294.86 319.35 296.30 316.77
  Q 297.22 315.11 297.45 314.05
  A 2.02 1.98 -19.8 0 1 297.89 313.14
  Q 299.38 311.36 300.11 309.13
  A 1.81 1.76 -12.4 0 1 300.62 308.36
  C 301.81 307.31 302.24 305.92 303.10 304.85
  Q 308.07 298.68 314.50 294.12
  C 316.94 292.40 320.18 291.01 322.97 289.26
  A 0.47 0.46 68.5 0 1 323.67 289.57
  Q 324.01 291.37 323.32 293.04
  Q 323.10 293.56 323.40 294.04
  Q 323.74 294.58 323.15 294.95
  A 0.98 0.95 78.8 0 0 322.72 295.61
  Q 321.19 305.50 317.49 316.00
  Q 316.88 317.73 316.27 319.00
  C 315.75 320.09 315.26 322.35 314.27 323.59
  Z"
/>
<path fill="#fff" d="
  M 458.31 352.66
  L 458.68 335.66
  A 1.62 1.62 0.0 0 0 457.06 334.00
  L 405.03 334.00
  A 0.70 0.70 0.0 0 0 404.33 334.69
  Q 403.89 362.51 404.00 390.12
  C 404.00 391.19 403.60 392.75 403.62 393.58
  Q 403.72 397.82 400.67 394.87
  Q 394.24 388.64 387.71 381.82
  Q 387.29 381.38 386.54 381.38
  Q 386.10 381.37 385.91 380.98
  Q 384.89 378.84 383.16 377.19
  Q 382.77 376.81 382.65 376.27
  C 382.43 375.23 382.09 374.22 382.04 373.16
  Q 381.34 359.26 380.93 330.05
  Q 380.68 312.06 380.88 304.10
  Q 380.89 303.50 381.50 303.49
  Q 383.79 303.48 388.50 303.56
  Q 418.38 304.05 448.26 304.49
  C 451.30 304.53 453.46 305.36 456.37 306.08
  C 460.17 307.02 465.90 310.06 468.74 312.76
  C 470.31 314.25 471.96 315.13 473.28 316.87
  Q 475.17 319.38 477.34 321.65
  A 0.48 0.47 49.9 0 0 477.96 321.71
  Q 478.11 321.61 478.28 321.58
  Q 478.87 321.48 478.96 322.07
  L 479.38 324.82
  Q 479.46 325.33 479.69 325.79
  Q 481.61 329.62 482.75 333.77
  Q 482.88 334.26 483.35 334.46
  L 484.03 334.74
  Q 484.45 334.91 484.24 335.32
  Q 483.63 336.56 483.77 337.24
  Q 485.67 346.55 483.50 354.00
  C 482.68 356.80 482.19 359.52 481.05 361.85
  C 479.36 365.36 477.76 368.99 475.40 371.99
  C 472.66 375.49 468.80 380.11 464.91 382.29
  C 463.96 382.82 463.30 383.78 462.41 384.33
  Q 453.42 389.83 444.24 391.25
  Q 433.89 392.86 429.50 392.41
  Q 424.56 391.91 419.95 392.54
  A 1.09 1.09 0.0 0 1 418.71 391.47
  L 418.42 354.69
  A 0.91 0.91 0.0 0 1 419.32 353.78
  L 457.59 353.37
  Q 458.29 353.36 458.31 352.66
  Z"
/>
<path fill="#fff" d="
  M 365.65 322.71
  L 366.45 334.59
  A 0.33 0.33 0.0 0 1 366.13 334.95
  L 354.21 335.15
  A 0.33 0.33 0.0 0 1 353.97 334.59
  L 365.08 322.51
  A 0.33 0.33 0.0 0 1 365.65 322.71
  Z"
/>
<path fill="#fff" d="
  M 72.50 379.49
  Q 72.50 380.22 73.23 380.20
  Q 87.14 379.86 97.73 378.54
  Q 103.88 377.77 111.25 378.05
  C 113.28 378.12 114.79 377.22 116.89 377.56
  Q 118.83 377.87 120.76 378.14
  Q 121.89 378.30 122.33 377.27
  Q 122.55 376.76 122.99 377.10
  L 123.79 377.73
  A 1.26 1.26 0.0 0 0 124.54 378.00
  Q 125.57 378.05 126.49 378.51
  A 1.16 1.15 -44.1 0 0 127.50 378.52
  Q 128.15 378.22 128.75 378.63
  Q 129.08 378.85 129.47 378.92
  Q 133.12 379.53 136.75 381.55
  Q 137.79 382.12 139.28 382.25
  Q 139.80 382.30 139.99 382.77
  Q 140.75 384.61 139.34 386.34
  Q 135.55 391.01 130.43 397.86
  C 125.60 404.32 120.13 410.17 112.37 412.23
  Q 105.30 414.10 99.75 414.24
  Q 85.93 414.59 74.83 410.12
  Q 70.67 408.44 64.31 404.51
  Q 62.57 403.43 60.28 401.31
  C 58.50 399.66 56.73 398.58 55.19 396.64
  C 53.29 394.26 51.04 392.57 49.55 389.95
  Q 46.43 384.47 45.67 382.81
  Q 42.89 376.71 42.22 367.49
  Q 40.84 348.55 53.38 334.62
  C 54.56 333.32 56.62 332.04 58.17 330.80
  C 64.10 326.06 72.53 323.93 80.00 323.85
  Q 112.14 323.50 143.91 324.36
  A 1.57 1.56 1.5 0 1 145.44 325.96
  L 144.70 357.46
  Q 144.67 359.10 143.03 359.07
  L 73.53 357.97
  A 1.01 1.00 -89.4 0 0 72.51 358.98
  L 72.50 379.49
  Z"
/>
<path fill="#fff" d="
  M 163.35 332.87
  C 167.21 335.97 170.72 340.00 174.25 343.43
  A 0.33 0.33 0.0 0 1 174.02 344.00
  L 161.27 344.00
  Q 160.78 344.00 160.80 343.52
  L 161.10 332.64
  Q 161.13 331.54 162.12 332.02
  Q 162.58 332.24 163.35 332.87
  Z"
/>
<path fill="#fff" d="
  M 298.55 377.21
  L 298.44 376.72
  Q 298.37 376.39 298.66 376.21
  Q 299.81 375.53 300.11 374.22
  Q 300.23 373.69 300.64 373.33
  C 301.97 372.16 302.60 370.61 303.70 369.50
  C 319.77 353.30 343.37 351.28 361.50 364.77
  Q 365.30 367.59 368.60 372.17
  C 369.64 373.62 371.34 375.39 372.35 377.38
  Q 373.00 378.66 374.26 378.64
  Q 374.68 378.64 374.70 379.06
  Q 374.83 381.53 376.31 383.51
  A 1.43 1.42 -18.3 0 1 375.16 385.79
  Q 345.46 385.58 315.25 386.05
  C 309.74 386.13 304.12 390.02 298.89 394.61
  Q 298.59 394.89 298.41 395.25
  Q 298.14 395.79 297.53 395.97
  Q 296.99 396.12 296.61 396.52
  L 295.00 398.21
  Q 294.53 398.71 294.63 398.03
  C 294.96 395.71 294.40 393.58 294.71 391.37
  C 295.00 389.35 294.99 387.31 295.45 385.41
  Q 296.02 383.05 296.70 380.73
  Q 296.86 380.20 297.29 379.84
  Q 297.70 379.50 297.50 379.00
  A 0.72 0.71 66.0 0 1 297.84 378.09
  L 298.22 377.90
  Q 298.65 377.69 298.55 377.21
  Z"
/>
<path fill="#fff" d="
  M 212.62 366.50
  Q 213.40 366.22 213.90 366.85
  Q 214.21 367.25 214.67 367.46
  C 219.36 369.59 223.58 374.09 226.74 378.28
  C 228.84 381.06 229.94 384.47 232.34 387.40
  Q 232.61 387.73 232.43 388.12
  C 231.12 391.02 232.69 393.47 232.77 396.47
  Q 232.89 400.91 233.06 405.57
  Q 233.12 407.17 232.05 405.98
  Q 231.28 405.12 230.16 404.88
  A 1.55 1.54 75.7 0 1 229.31 404.37
  C 227.92 402.73 226.09 402.02 224.63 400.57
  C 222.95 398.89 221.17 398.20 219.55 396.38
  C 217.94 394.56 214.59 394.02 212.43 394.01
  Q 182.62 393.84 152.82 394.31
  Q 152.33 394.32 151.90 394.58
  L 151.49 394.83
  Q 151.31 394.93 151.12 394.85
  Q 149.55 394.19 147.82 394.05
  Q 147.22 394.01 147.50 393.48
  L 149.65 389.47
  Q 149.88 389.04 150.25 388.74
  C 150.97 388.15 150.95 387.39 151.40 386.76
  C 158.01 377.63 163.92 371.02 173.96 366.11
  Q 174.34 365.93 175.59 365.66
  C 176.34 365.50 177.07 364.88 177.75 364.66
  C 188.14 361.25 200.21 360.88 210.28 365.35
  Q 210.73 365.55 211.23 365.48
  Q 211.88 365.39 211.99 366.12
  A 0.47 0.47 0.0 0 0 212.62 366.50
  Z"
/>
<path fill="#fff" d="
  M 296.83 483.95
  Q 294.90 484.41 294.81 482.77
  C 294.35 474.12 294.95 464.12 294.90 454.74
  Q 294.85 444.13 295.63 439.90
  C 298.72 423.09 309.20 411.31 327.10 411.00
  Q 345.55 410.67 364.00 410.76
  Q 371.24 410.79 378.00 413.20
  C 379.81 413.85 381.67 415.26 383.66 416.06
  C 384.78 416.51 385.04 417.34 386.01 417.81
  Q 388.67 419.08 391.31 420.39
  Q 391.78 420.62 392.01 421.09
  Q 392.22 421.54 392.78 421.51
  Q 393.26 421.49 393.70 421.66
  C 394.80 422.08 395.76 422.78 396.83 423.07
  Q 405.46 425.48 414.48 424.80
  Q 418.45 424.50 421.77 424.17
  Q 423.76 423.97 422.50 425.52
  L 422.18 425.90
  Q 421.87 426.28 422.06 426.73
  Q 422.52 427.79 422.00 428.51
  Q 419.60 431.84 418.62 434.35
  A 1.00 1.00 0.0 0 1 418.04 434.93
  Q 417.27 435.22 417.58 436.02
  Q 417.82 436.65 417.17 436.85
  Q 416.36 437.10 416.53 437.98
  Q 416.65 438.56 416.16 438.89
  Q 415.08 439.60 414.88 440.91
  Q 414.80 441.39 414.39 441.66
  Q 413.20 442.46 412.87 443.87
  A 1.61 1.59 79.1 0 1 412.27 444.77
  Q 411.13 445.59 410.83 446.97
  Q 410.74 447.40 410.39 447.69
  C 408.04 449.66 406.65 452.38 404.78 454.30
  Q 398.33 460.89 396.37 462.61
  Q 380.06 477.01 360.17 481.92
  Q 352.40 483.84 341.62 484.11
  A 1.03 0.02 17.3 0 1 340.71 483.85
  Q 340.45 483.77 340.13 483.86
  Q 337.82 484.49 335.51 484.03
  Q 335.07 483.94 335.06 483.50
  L 334.69 454.71
  A 1.23 1.23 0.0 0 1 335.90 453.46
  L 356.27 453.17
  A 0.90 0.90 0.0 0 0 357.16 452.24
  L 356.66 437.10
  A 1.58 1.57 89.2 0 0 355.10 435.57
  L 321.81 435.32
  A 1.13 1.13 0.0 0 0 320.67 436.44
  L 320.43 483.09
  Q 320.42 484.63 318.88 484.61
  Q 309.27 484.52 300.75 484.17
  Q 299.87 484.13 298.21 485.51
  Q 297.63 485.99 297.61 485.23
  L 297.58 484.52
  A 0.61 0.60 -7.7 0 0 296.83 483.95
  Z"
/>
<path fill="#fff" d="
  M 441.62 421.64
  C 440.98 422.42 440.52 423.56 439.48 424.59
  A 0.78 0.78 0.0 0 1 438.31 424.51
  L 429.90 413.60
  A 0.47 0.47 0.0 0 1 430.30 412.84
  L 446.25 413.72
  Q 448.78 413.86 446.60 415.21
  Q 445.89 415.65 445.19 416.97
  C 444.22 418.81 442.91 420.09 441.62 421.64
  Z"
/>
<path fill="#fff" d="
  M 168.86 456.39
  Q 169.42 456.19 169.98 456.57
  A 1.04 1.01 -28.3 0 0 170.58 456.74
  L 186.72 456.37
  Q 187.69 456.35 188.05 457.25
  Q 188.50 458.38 188.41 459.84
  C 187.87 468.26 188.26 476.96 188.24 485.41
  Q 188.24 485.93 187.72 485.95
  Q 174.31 486.41 161.59 482.59
  C 160.75 482.34 159.27 481.45 158.05 481.26
  Q 157.19 481.12 156.61 480.80
  C 153.90 479.30 150.76 478.48 148.30 477.08
  C 142.37 473.70 136.78 470.42 131.70 465.80
  C 129.55 463.86 126.05 461.34 123.88 458.12
  Q 123.17 457.06 119.97 453.94
  C 118.68 452.69 118.13 450.98 116.68 449.68
  Q 116.28 449.32 116.12 448.80
  Q 115.68 447.37 114.53 446.52
  Q 111.85 444.55 115.14 444.24
  Q 121.42 443.65 128.42 441.40
  C 129.56 441.04 131.24 439.91 132.77 439.57
  Q 133.94 439.31 134.58 439.00
  Q 144.11 434.31 149.48 430.18
  C 155.13 425.83 160.59 422.62 167.88 422.08
  Q 179.15 421.24 202.75 423.18
  C 203.76 423.26 204.93 423.74 206.12 423.74
  Q 206.62 423.75 207.05 424.00
  C 208.64 424.96 210.31 425.00 211.78 425.98
  C 218.78 430.63 224.71 437.20 229.35 445.34
  Q 230.43 447.25 230.47 449.55
  Q 230.79 467.39 231.26 485.35
  A 1.24 1.24 0.0 0 1 230.03 486.62
  L 204.96 486.90
  Q 203.75 486.91 203.75 485.71
  L 203.75 441.29
  Q 203.75 439.58 202.04 439.57
  L 168.50 439.32
  A 0.58 0.49 89.4 0 0 168.01 439.91
  L 168.33 456.02
  Q 168.34 456.58 168.86 456.39
  Z"
/>
<path fill="#fff" d="
  M 93.35 445.43
  L 85.51 436.85
  A 0.97 0.97 0.0 0 1 86.18 435.22
  L 97.79 434.62
  A 0.97 0.97 0.0 0 1 98.73 435.96
  L 94.97 445.14
  A 0.97 0.97 0.0 0 1 93.35 445.43
  Z"
/>
</svg>
